<?xml version="1.0" encoding="UTF-8"?>
<svg id="a" data-name="Calque 1" xmlns="http://www.w3.org/2000/svg" xmlns:xlink="http://www.w3.org/1999/xlink" viewBox="0 0 184.52 182.29">
  <defs>
    <linearGradient id="b" data-name="Dégradé sans nom 34" x1="-27.29" y1="33.63" x2="149.77" y2="210.69" gradientUnits="userSpaceOnUse">
      <stop offset="0" stop-color="#09235c"/>
      <stop offset=".3" stop-color="#06428a"/>
      <stop offset=".51" stop-color="#045aad"/>
      <stop offset="1" stop-color="#016fc8"/>
    </linearGradient>
  </defs>
  <path id="c" data-name="Règle" d="m173.27,124.09H58.91V11.12c0-6.11-4.73-11.12-10.52-11.12H10.52C4.73,0,0,5,0,11.12v6.21h13.01c1.07,0,1.94.86,1.94,1.92s-.87,1.92-1.94,1.92H0v16.67h23.49c1.61,0,2.91,1.29,2.91,2.88s-1.3,2.88-2.91,2.88H0v16.67h13.01c1.07,0,1.94.86,1.94,1.92s-.87,1.92-1.94,1.92H0v16.67h23.49c1.61,0,2.91,1.29,2.91,2.88s-1.3,2.88-2.91,2.88H0v16.67h13.01c1.07,0,1.94.86,1.94,1.92s-.87,1.92-1.94,1.92H0v16.67h23.49c1.61,0,2.91,1.29,2.91,2.88s-1.3,2.88-2.91,2.88H0v16.67h13.01c1.07,0,1.94.86,1.94,1.92s-.87,1.92-1.94,1.92H0v21.97c0,2.73,1.17,5.22,3.05,7.08.05.05.1.1.15.15.05.05.1.1.15.15,1.88,1.86,4.4,3.01,7.17,3.01h25.48v-13c0-1.06.87-1.92,1.94-1.92s1.94.86,1.94,1.92v13h16.87v-23.36c0-1.59,1.3-2.88,2.91-2.88s2.91,1.29,2.91,2.88v23.36h16.87v-13c0-1.06.87-1.92,1.94-1.92s1.94.86,1.94,1.92v13h16.87v-23.36c0-1.59,1.3-2.88,2.91-2.88s2.91,1.29,2.91,2.88v23.36h16.87v-13c0-1.06.87-1.92,1.94-1.92s1.94.86,1.94,1.92v13h16.87v-23.36c0-1.59,1.3-2.88,2.91-2.88s2.91,1.29,2.91,2.88v23.36h16.87v-13c0-1.06.87-1.92,1.94-1.92s1.94.86,1.94,1.92v13h3.05c6.19,0,11.25-4.68,11.25-10.39v-37.41c0-5.72-5.06-10.39-11.25-10.39Z" style="fill: url(#b); stroke-width: 0px;"/>
</svg>