<?xml version="1.0" encoding="UTF-8"?><svg id="a" xmlns="http://www.w3.org/2000/svg" xmlns:xlink="http://www.w3.org/1999/xlink" viewBox="0 0 200 200"><defs><linearGradient id="b" x1="-1709.41" y1="4.39" x2="-1708.41" y2="5.39" gradientTransform="translate(341882 -878) scale(200)" gradientUnits="userSpaceOnUse"><stop offset="0" stop-color="#09235c"/><stop offset=".14" stop-color="#082660"/><stop offset=".29" stop-color="#072f6d"/><stop offset=".45" stop-color="#063e84"/><stop offset=".62" stop-color="#0453a2"/><stop offset=".66" stop-color="#045aad"/><stop offset="1" stop-color="#016fc8"/></linearGradient></defs><path d="m44,0h112c24.3,0,44,19.7,44,44v112c0,24.3-19.7,44-44,44H44c-24.3,0-44-19.7-44-44V44C0,19.7,19.7,0,44,0Z" style="fill:url(#b); stroke-width:0px;"/><path id="c" d="m159.17,124.07h-83.53V41.54c0-4.47-3.46-8.12-7.68-8.12h-27.66c-4.23,0-7.68,3.65-7.68,8.12v4.53h9.5c.78,0,1.42.63,1.42,1.4s-.64,1.4-1.42,1.4h-9.5v12.17h17.16c1.17,0,2.13.94,2.13,2.1s-.95,2.1-2.13,2.1h-17.16v12.17h9.5c.78,0,1.42.63,1.42,1.4s-.64,1.4-1.42,1.4h-9.5v12.17h17.16c1.17,0,2.13.94,2.13,2.1s-.95,2.1-2.13,2.1h-17.16v12.17h9.5c.78,0,1.42.63,1.42,1.4s-.64,1.4-1.42,1.4h-9.5v12.17h17.16c1.17,0,2.13.94,2.13,2.1s-.95,2.1-2.13,2.1h-17.16v12.17h9.5c.78,0,1.42.63,1.42,1.4s-.64,1.4-1.42,1.4h-9.5v16.05c0,2,.85,3.81,2.23,5.17.04.04.07.07.11.11.04.04.07.07.11.11,1.38,1.36,3.21,2.2,5.23,2.2h18.61v-9.5c0-.77.63-1.4,1.42-1.4s1.42.63,1.42,1.4v9.5h12.32v-17.06c0-1.16.95-2.1,2.13-2.1s2.13.94,2.13,2.1v17.06h12.32v-9.5c0-.77.63-1.4,1.42-1.4s1.42.63,1.42,1.4v9.5h12.32v-17.06c0-1.16.95-2.1,2.13-2.1s2.13.94,2.13,2.1v17.06h12.32v-9.5c0-.77.63-1.4,1.42-1.4s1.42.63,1.42,1.4v9.5h12.32v-17.06c0-1.16.95-2.1,2.13-2.1s2.13.94,2.13,2.1v17.06h12.32v-9.5c0-.77.63-1.4,1.42-1.4s1.42.63,1.42,1.4v9.5h2.23c4.52,0,8.22-3.42,8.22-7.59v-27.33c0-4.18-3.7-7.59-8.22-7.59Z" style="fill:#fff; stroke-width:0px;"/></svg>